<?xml version="1.0" encoding="utf-8"?>
<!-- Generator: Adobe Illustrator 24.1.1, SVG Export Plug-In . SVG Version: 6.00 Build 0)  -->
<svg version="1.1" id="Layer_1" xmlns="http://www.w3.org/2000/svg" xmlns:xlink="http://www.w3.org/1999/xlink" x="0px" y="0px"
	 viewBox="0 0 512 512" style="enable-background:new 0 0 512 512;" xml:space="preserve">
<style type="text/css">
	.st0{fill:#FF2D20;}
</style>
<g>
	<path class="st0" d="M504.4,115.8c0.2,0.7,0.3,1.4,0.3,2.1v109.9c0,2.9-1.5,5.5-4,7l-92.2,53.1v105.3c0,2.9-1.5,5.5-4,7
		L211.9,510.9c-0.4,0.3-0.9,0.4-1.4,0.6c-0.2,0.1-0.4,0.2-0.5,0.2c-1.3,0.4-2.8,0.4-4.1,0c-0.2-0.1-0.4-0.2-0.6-0.3
		c-0.4-0.2-0.9-0.3-1.3-0.5L11.4,400.1c-2.5-1.4-4-4.1-4-7V63.4c0-0.7,0.1-1.4,0.3-2.1c0.1-0.2,0.2-0.4,0.3-0.7
		c0.2-0.4,0.3-0.9,0.5-1.2c0.1-0.3,0.4-0.5,0.6-0.7c0.2-0.3,0.4-0.7,0.7-0.9c0.2-0.2,0.5-0.4,0.8-0.6c0.3-0.2,0.6-0.5,0.9-0.7h0
		l96.3-55.4c2.5-1.4,5.5-1.4,8,0l96.3,55.4h0c0.3,0.2,0.6,0.5,0.9,0.7c0.3,0.2,0.6,0.4,0.8,0.6c0.3,0.3,0.5,0.6,0.7,0.9
		c0.2,0.2,0.4,0.5,0.5,0.7c0.2,0.4,0.4,0.8,0.5,1.2c0.1,0.2,0.2,0.4,0.3,0.7c0.2,0.7,0.3,1.4,0.3,2.1v205.9l80.2-46.2V117.9
		c0-0.7,0.1-1.4,0.3-2.1c0.1-0.2,0.2-0.5,0.3-0.7c0.2-0.4,0.3-0.9,0.5-1.2c0.1-0.3,0.4-0.5,0.5-0.7c0.2-0.3,0.4-0.7,0.7-0.9
		c0.2-0.2,0.5-0.4,0.8-0.6c0.3-0.2,0.6-0.5,0.9-0.7h0l96.3-55.4c2.5-1.4,5.5-1.4,8,0l96.3,55.4c0.3,0.2,0.6,0.5,0.9,0.7
		c0.3,0.2,0.5,0.4,0.8,0.6c0.3,0.3,0.5,0.6,0.7,0.9c0.2,0.2,0.4,0.5,0.5,0.7c0.2,0.4,0.4,0.8,0.5,1.2
		C504.2,115.4,504.3,115.6,504.4,115.8z M488.6,223.2v-91.4l-33.7,19.4L408.4,178v91.4L488.6,223.2L488.6,223.2z M392.4,388.5v-91.4
		l-45.8,26.1l-130.7,74.6v92.3L392.4,388.5z M23.4,77.3v311.2l176.5,101.6v-92.3l-92.2-52.2l0,0l0,0c-0.3-0.2-0.6-0.4-0.9-0.7
		c-0.3-0.2-0.5-0.4-0.8-0.6l0,0c-0.3-0.3-0.4-0.6-0.7-0.8c-0.2-0.3-0.4-0.5-0.6-0.8l0,0c-0.2-0.3-0.3-0.7-0.4-1
		c-0.1-0.3-0.3-0.6-0.4-0.9v0c-0.1-0.4-0.1-0.8-0.2-1.2c0-0.3-0.1-0.6-0.1-0.9v0V123.5L57.1,96.7L23.4,77.3L23.4,77.3z M111.6,17.3
		L31.4,63.4l80.2,46.2l80.2-46.2L111.6,17.3L111.6,17.3z M153.3,305.4l46.5-26.8V77.3l-33.7,19.4l-46.5,26.8v201.3L153.3,305.4z
		 M400.4,71.8l-80.2,46.2l80.2,46.2l80.2-46.2L400.4,71.8z M392.4,178l-46.5-26.8l-33.7-19.4v91.4l46.5,26.8l33.7,19.4V178z
		 M207.9,383.9l117.6-67.2l58.8-33.6l-80.1-46.1l-92.3,53.1l-84.1,48.4L207.9,383.9z"/>
</g>
</svg>
