<?xml version="1.0" encoding="utf-8"?>
<!-- Generator: Adobe Illustrator 24.1.1, SVG Export Plug-In . SVG Version: 6.00 Build 0)  -->
<svg version="1.1" id="Layer_1" xmlns="http://www.w3.org/2000/svg" xmlns:xlink="http://www.w3.org/1999/xlink" x="0px" y="0px"
	 viewBox="0 0 512 512" style="enable-background:new 0 0 512 512;" xml:space="preserve">
<style type="text/css">
	.st0{fill-rule:evenodd;clip-rule:evenodd;fill:#2F495E;}
	.st1{fill-rule:evenodd;clip-rule:evenodd;fill:#01C58E;}
	.st2{fill-rule:evenodd;clip-rule:evenodd;fill:#108775;}
</style>
<g>
	<path class="st0" d="M203.8,238.2c0.7,0.7,1.1,1.7,1,2.7v52.3c0,1.1-0.4,2.2-1.2,3c-0.8,0.8-1.9,1.3-3,1.2c-0.6,0-1.3-0.1-1.8-0.3
		c-0.5-0.2-1-0.5-1.4-0.9l-33.9-44.1v41.5c0,1-0.4,2-1.1,2.7c-0.7,0.7-1.7,1.1-2.7,1.1c-1,0-2-0.4-2.7-1.1c-0.7-0.7-1.1-1.7-1-2.7
		v-52.4c0-1.1,0.4-2.2,1.2-3c0.8-0.8,1.8-1.2,2.9-1.2c0.7,0,1.4,0.1,2,0.4c0.6,0.2,1.1,0.6,1.5,1.1l33.7,44.2v-41.9
		c0-1,0.4-2,1.1-2.7c0.7-0.7,1.7-1.1,2.7-1.1C202.1,237.1,203.1,237.5,203.8,238.2z M273.3,238.2c0.7,0.8,1.1,1.9,1.1,3v33.1
		c0.1,4.3-1,8.5-3,12.2c-1.9,3.5-4.8,6.5-8.3,8.5c-3.6,2.1-7.7,3.2-11.9,3.1c-4.2,0.1-8.4-1-12.1-3c-3.5-2-6.4-4.9-8.4-8.5
		c-2-3.8-3.1-8-3-12.2v-33.1c0-1.1,0.4-2.2,1.2-3c0.8-0.8,1.9-1.2,3.1-1.2c1.1,0,2.1,0.4,2.9,1.2c0.8,0.8,1.2,1.8,1.2,2.9v33.1
		c0,2.8,0.7,5.6,2.1,8.1c2.6,4.7,7.6,7.5,12.9,7.5c2.7,0,5.3-0.7,7.7-2c2.4-1.3,4.3-3.2,5.7-5.5c1.4-2.4,2.1-5.2,2.1-8.1v-33.1
		c0-1.1,0.3-2.1,1-3c0.7-0.8,1.8-1.3,2.9-1.2C271.6,237,272.6,237.4,273.3,238.2z M339.6,291.2c0.5,0.7,0.8,1.6,0.8,2.4
		c0,1.1-0.4,2.2-1.2,2.9c-0.8,0.7-1.8,1.1-2.8,1.1c-1.3,0.1-2.6-0.6-3.4-1.7l-16.7-22.3l-16.4,22.3c-0.7,1.1-2,1.8-3.4,1.8
		c-1,0-1.9-0.4-2.6-1.1c-0.7-0.6-1.1-1.5-1.1-2.4c0-1,0.4-2,1-2.8l17.7-24l-17.7-23.9c-0.6-0.7-0.9-1.6-0.9-2.4
		c0-1.1,0.4-2.2,1.2-2.9c0.8-0.8,1.8-1.2,2.9-1.2c0.6,0,1.3,0.2,1.8,0.4c0.6,0.3,1.1,0.7,1.5,1.3l16.5,22.2l16.4-22
		c0.7-1.1,1.9-1.8,3.3-1.9c1,0,2,0.5,2.7,1.2c0.8,0.7,1.2,1.6,1.2,2.6c0,0.9-0.3,1.7-0.9,2.4l-18,23.9L339.6,291.2z M401.8,238.2
		c0.8,0.7,1.3,1.8,1.2,2.9c0,1.1-0.4,2.1-1.2,2.8c-0.8,0.7-1.9,1.1-3,1h-15.3v48.3c0,1.1-0.4,2.2-1.2,2.9c-1.8,1.6-4.5,1.6-6.3,0
		c-0.8-0.8-1.2-1.8-1.2-2.9v-48.3h-15.3c-1.1,0-2.2-0.3-3-1.1c-0.8-0.7-1.2-1.8-1.2-2.9c0-1.1,0.4-2.1,1.2-2.8
		c0.8-0.7,1.9-1.1,3-1.1h39.4C399.9,237.1,400.9,237.5,401.8,238.2z"/>
	<path class="st1" d="M420.6,295.9c-2.8-1.6-5.1-3.9-6.7-6.6c-0.5-0.7-0.8-1.5-0.8-2.3c0-1.1,0.5-2.1,1.3-2.8
		c0.7-0.7,1.7-1.2,2.7-1.2c1.5,0.1,2.9,0.9,3.9,2.2c1.9,3.1,5.4,5,9,5c3,0.1,5.9-1.1,8-3.2c2.1-2,3.3-4.9,3.3-7.8v-37.8
		c0-1.1,0.5-2.2,1.3-2.9c0.8-0.8,1.9-1.2,3-1.2c1.1-0.1,2.2,0.4,3.1,1.2c0.8,0.8,1.2,1.9,1.2,3v37.8c0,3.4-0.9,6.7-2.6,9.6
		c-1.7,2.9-4.2,5.3-7.1,7c-3.1,1.7-6.6,2.6-10.1,2.6C426.7,298.3,423.5,297.5,420.6,295.9z M479.8,296.5c-3.4-1.3-6.5-3.2-9.2-5.7
		c-1.1-0.8-1.8-2.1-1.8-3.5c0-1.1,0.5-2.1,1.2-2.8c0.7-0.8,1.8-1.2,2.8-1.2c0.9,0,1.8,0.3,2.4,0.9c2.1,2,4.5,3.6,7.1,4.7
		c2.6,1.1,5.5,1.6,8.3,1.5c3.2,0.1,6.4-0.8,9.2-2.5c2.3-1.3,3.7-3.7,3.7-6.3c0-2.8-1.4-5.4-3.7-6.9c-3.4-2-7.2-3.4-11.1-4.1
		c-5.9-1.2-10.5-3.2-13.7-6c-3.2-2.8-4.8-6.6-4.8-11.4c-0.1-3.2,0.9-6.3,2.7-9c1.8-2.6,4.4-4.7,7.3-5.9c3.4-1.4,7-2.1,10.7-2.1
		c3.4,0,6.8,0.6,10.1,1.7c2.9,1,5.5,2.5,7.7,4.6c1.2,0.9,1.9,2.2,2,3.7c0,1-0.4,2-1.2,2.8c-0.7,0.8-1.7,1.2-2.8,1.2
		c-0.7,0-1.4-0.2-2-0.7c-1.8-1.7-3.9-3-6.2-3.8c-2.4-1-4.9-1.5-7.5-1.5c-3.2-0.2-6.4,0.7-9.2,2.4c-2.1,1.4-3.4,3.8-3.4,6.3
		c0,2.6,1.3,4.9,3.4,6.3c3.1,1.8,6.6,3.1,10.1,3.8c3.8,0.7,7.5,1.9,11,3.4c2.7,1.2,5,3.1,6.6,5.5c1.7,2.8,2.5,6,2.3,9.2
		c0,3.2-0.9,6.3-2.8,8.9c-2,2.7-4.6,4.7-7.6,6c-3.3,1.5-6.9,2.2-10.6,2.2C487.2,298.4,483.4,297.8,479.8,296.5z"/>
	<path class="st1" d="M35.8,296.7c-0.1-0.2-0.2-0.3-0.2-0.5c-0.5-1.1-0.6-2.3-0.4-3.5H7.3l41.3-72.7l13.6,23.8l3.9-7l-11.8-20.8
		c-0.3-0.6-2.3-3.8-5.8-3.8c-1.6,0-3.8,0.7-5.6,3.9L1.1,289.8c-0.4,0.6-2.1,4-0.4,6.9c0.8,1.3,2.4,3,6.1,3h35
		C38.3,299.6,36.6,298.1,35.8,296.7z"/>
	<path class="st2" d="M116.3,289.8L82,229.2c-0.4-0.6-2.3-3.9-5.8-3.9c-1.6,0-3.8,0.7-5.6,3.8l-4.4,7.8l4,7l6.1-10.8l34,59.7H97.3
		c0.2,1,0.1,2-0.3,2.9c-0.1,0.2-0.2,0.4-0.3,0.6l-0.1,0.2c-1.7,3-5.5,3.1-6.2,3.1h20.2c0.7,0,4.5-0.2,6.2-3.1
		C117.6,295.2,118.2,292.9,116.3,289.8z"/>
	<path class="st0" d="M96.6,296.5l0.1-0.2c0.1-0.2,0.2-0.4,0.3-0.6c0.3-0.9,0.4-2,0.3-2.9c-0.2-1.1-0.6-2.1-1.1-3l-26-45.8l-4-7
		l-4,7l-26,45.8c-0.5,0.9-0.8,2-1,3c-0.2,1.2-0.1,2.4,0.4,3.5c0.1,0.2,0.1,0.3,0.2,0.5c0.8,1.3,2.4,3,6.1,3h48.5
		C91.1,299.6,94.9,299.5,96.6,296.5z M66.1,250.9l23.8,41.9H42.3L66.1,250.9z"/>
</g>
</svg>
